<svg id="Capa_1" data-name="Capa 1" xmlns="http://www.w3.org/2000/svg" viewBox="0 0 483.52 483.52"><defs><style>.cls-1{fill:#ffd566;}</style></defs><path class="cls-1" d="M92,407.54a589.85,589.85,0,0,0,88.3-6.18,1.07,1.07,0,0,1,1.11.46,66.34,66.34,0,0,0,76.19,23,1.15,1.15,0,0,1,1.11.19,575.23,575.23,0,0,0,67.21,46A228.84,228.84,0,0,1,92,407.54Z" transform="translate(-7.78 -7.8)"/><path class="cls-1" d="M488.19,263.09a228.63,228.63,0,0,1-99.81,178,2,2,0,0,1-2.09.2,499.17,499.17,0,0,1-88.55-54.85,1.14,1.14,0,0,1-.39-1.3,68.74,68.74,0,0,0,3.25-12.5,1.17,1.17,0,0,1,.72-.91C373.67,346.32,438,308.9,488.19,263.09Z" transform="translate(-7.78 -7.8)"/><path class="cls-1" d="M259.67,23.26A226,226,0,0,1,390.72,64.51c-11.19,1.43-22.51,3.32-33.77,5.59a54.2,54.2,0,0,0-87.84-5.27,751.81,751.81,0,0,0-92.72-25.89A226.72,226.72,0,0,1,259.67,23.26Z" transform="translate(-7.78 -7.8)"/><path class="cls-1" d="M427.48,97.69a2.06,2.06,0,0,1,1.63.65,226.1,226.1,0,0,1,43.53,70.15,854.33,854.33,0,0,0-82.05-50.11c-7.42-4-15.36-8.06-24.92-12.75A442.34,442.34,0,0,1,427.48,97.69Z" transform="translate(-7.78 -7.8)"/><path class="cls-1" d="M200.66,292.57c-13.41-16.07-26.16-33.18-38.07-50.75a1.08,1.08,0,0,1,0-1.24,59.64,59.64,0,0,0,3.32-53.81c5.92-3.71,11.84-7.35,18-10.93a640.53,640.53,0,0,1,85.89-41.71,54.28,54.28,0,0,0,79.12,4c9.3,4.62,17.11,8.59,24.4,12.49a835.77,835.77,0,0,1,88.36,54.79,1.82,1.82,0,0,1,.85,1.5,2,2,0,0,1-.59,1.62c-45.55,45.75-107,83.16-177.63,108.21a1.11,1.11,0,0,1-1.17-.26A66.66,66.66,0,0,0,208.85,301a1.12,1.12,0,0,1-1.3-.33C205.21,298,202.93,295.3,200.66,292.57Z" transform="translate(-7.78 -7.8)"/><path class="cls-1" d="M256.94,99.32v.59a676.77,676.77,0,0,0-91.48,44.37c-7.55,4.36-15.43,9.24-24,14.71a60,60,0,0,0-29.61-8.4A482.29,482.29,0,0,1,92.19,97.76a2.13,2.13,0,0,1,.45-2,232.55,232.55,0,0,1,31.56-28,2.16,2.16,0,0,1,1.5-.39C168.12,73,212.3,83.77,256.94,99.32Z" transform="translate(-7.78 -7.8)"/><path class="cls-1" d="M31,247.74A228.24,228.24,0,0,1,54,152c2.8,7.22,5.86,14.57,9.11,21.86A1.44,1.44,0,0,1,63,175a58.87,58.87,0,0,0-11.71,35.4,57.28,57.28,0,0,0,2,15.16v.2a1.41,1.41,0,0,1-.33.91C45.34,233.55,38.05,240.65,31,247.74Z" transform="translate(-7.78 -7.8)"/><path class="cls-1" d="M170,344.69A525,525,0,0,1,53.28,348.2,1.91,1.91,0,0,1,51.59,347a224.5,224.5,0,0,1-16.07-49.72A2,2,0,0,1,36,295.5c11.52-13.08,23.94-25.77,37-37.87a1,1,0,0,1,.72-.33,1.33,1.33,0,0,1,.71.26,59.1,59.1,0,0,0,36.7,12.56c1.5,0,2.93-.06,4.42-.19a1.33,1.33,0,0,1,1,.52A691.42,691.42,0,0,0,159,327.19c4,4.88,8.07,9.56,12.17,14.25a1.12,1.12,0,0,1,.19,1.1l-.39,1.3A1.11,1.11,0,0,1,170,344.69Z" transform="translate(-7.78 -7.8)"/><path d="M417.31,95.25a442.53,442.53,0,0,0-61.81,7.94c9.57,4.69,17.5,8.79,24.92,12.75a853.1,853.1,0,0,1,82.05,50.11A225.8,225.8,0,0,0,418.94,95.9,2.05,2.05,0,0,0,417.31,95.25Zm-69,18.87a11.75,11.75,0,0,1-6.44-12L342,101a11.75,11.75,0,0,1,9.37-10.22c14.7-3,29.28-5.2,43.53-6.76,7.35-.78,14.57-1.37,21.73-1.76a15.17,15.17,0,0,1,12,4.88,240.31,240.31,0,0,1,51.21,88.69,8.31,8.31,0,0,1-12.75,9.3,823.78,823.78,0,0,0-80.95-51.21c-3.9-2.21-7.87-4.36-11.84-6.5C366.56,123.3,358.3,119.07,348.28,114.12Z" transform="translate(-7.78 -7.8)"/><path d="M286.85,357c74.64-26.15,140.49-65.32,190.39-113.41a8.33,8.33,0,0,1,14.06,6A241.88,241.88,0,0,1,385.5,449.42a15,15,0,0,1-15,1.1C339.82,436,309.24,417,279.63,394.24A14,14,0,0,1,275,378.17a54.3,54.3,0,0,0,2.6-10A14.19,14.19,0,0,1,286.85,357Zm.33,25.71a1.14,1.14,0,0,0,.39,1.3,499.46,499.46,0,0,0,88.56,54.85,2,2,0,0,0,2.08-.2,228.63,228.63,0,0,0,99.81-178c-50.16,45.81-114.52,83.23-186.87,108.6a1.17,1.17,0,0,0-.72.91A67.15,67.15,0,0,1,287.18,382.66Z" transform="translate(-7.78 -7.8)"/><path d="M166.22,36.5a751.33,751.33,0,0,1,92.72,25.89,54.2,54.2,0,0,1,87.84,5.27c11.26-2.27,22.58-4.16,33.77-5.59A228.87,228.87,0,0,0,166.22,36.5Zm-19.33-5.86a241.75,241.75,0,0,1,251,28.11,8.36,8.36,0,0,1,2.93,8.85,8.47,8.47,0,0,1-7.09,6c-14.9,1.56-30.13,3.9-45.29,7a14,14,0,0,1-2.27.2,11.73,11.73,0,0,1-10-5.6,41.22,41.22,0,0,0-67.61-4A11.7,11.7,0,0,1,255.49,75,700.29,700.29,0,0,0,152.23,47c-1.11-.26-2.21-.46-3.32-.65a8.51,8.51,0,0,1-6.77-7.16A8.41,8.41,0,0,1,146.89,30.64Z" transform="translate(-7.78 -7.8)"/><path d="M155.74,184.33a59.68,59.68,0,0,1-3.31,53.81,1.05,1.05,0,0,0,0,1.24c11.9,17.57,24.66,34.68,38.06,50.75,2.28,2.73,4.55,5.47,6.9,8.13a1.12,1.12,0,0,0,1.3.33A66.64,66.64,0,0,1,272.93,314a1.11,1.11,0,0,0,1.17.26c70.66-25,132.09-62.46,177.64-108.21a2,2,0,0,0,.58-1.62,1.81,1.81,0,0,0-.84-1.5,834.27,834.27,0,0,0-88.37-54.79c-7.28-3.9-15.09-7.87-24.4-12.49a54.28,54.28,0,0,1-79.12-4A641.11,641.11,0,0,0,173.7,173.4C167.59,177,161.67,180.62,155.74,184.33Zm-12.29,4.36a11.76,11.76,0,0,1,4.42-14.77q9.47-6,19.33-11.78c3.57-2.08,7.15-4.1,10.73-6.11a660.71,660.71,0,0,1,77.76-36.77,11.68,11.68,0,0,1,13.4,3.45,41.13,41.13,0,0,0,61,3.06,11.81,11.81,0,0,1,13.47-2.21c9.89,4.88,18,9,25.71,13.14,3.9,2.08,7.8,4.23,11.71,6.38a841.17,841.17,0,0,1,78,49.25,15,15,0,0,1,2,22.91c-46.92,47.11-110,85.63-182.52,111.33a14.72,14.72,0,0,1-4.68.78,14.08,14.08,0,0,1-10.29-4.43,53,53,0,0,0-38.77-16.59,53.58,53.58,0,0,0-21,4.23,14,14,0,0,1-16.2-3.77c-2.41-2.74-4.75-5.53-7.09-8.33-13.66-16.4-26.68-33.84-38.85-51.79a14.36,14.36,0,0,1-.45-15.1A46.53,46.53,0,0,0,147.61,208,45.72,45.72,0,0,0,143.45,188.69Z" transform="translate(-7.78 -7.8)"/><path d="M82,95.32a482.39,482.39,0,0,0,19.72,52.83,60,60,0,0,1,29.6,8.4c8.53-5.47,16.4-10.35,23.95-14.71a678.61,678.61,0,0,1,91.48-44.38v-.58C202.14,81.33,158,70.53,115.53,64.93a2.12,2.12,0,0,0-1.49.39,231.35,231.35,0,0,0-31.56,28A2.16,2.16,0,0,0,82,95.32Zm49.32,74.43a11.81,11.81,0,0,1-6.11-1.69,46.69,46.69,0,0,0-24.34-6.89h-.06a11.52,11.52,0,0,1-10.61-6.84A503.38,503.38,0,0,1,69.59,99.16,15.19,15.19,0,0,1,73,84.45a241,241,0,0,1,33.38-29.6,14.74,14.74,0,0,1,10.86-2.8q16.4,2.14,33,5.27a702.31,702.31,0,0,1,101.7,27.59,11.64,11.64,0,0,1,7.88,11.25V98a11.69,11.69,0,0,1-7.42,11.25,656,656,0,0,0-79.45,37.61c-3.71,2-7.42,4.1-11.06,6.25-7.61,4.42-15.49,9.24-24.2,14.83A11.48,11.48,0,0,1,131.34,169.75Z" transform="translate(-7.78 -7.8)"/><path d="M170.12,398.92a589.72,589.72,0,0,1-88.29,6.18,228.82,228.82,0,0,0,233.91,63.44,575.23,575.23,0,0,1-67.21-46,1.15,1.15,0,0,0-1.11-.19,66.34,66.34,0,0,1-76.19-23A1.07,1.07,0,0,0,170.12,398.92ZM67.71,408.81A10.18,10.18,0,0,1,75.32,392h.2A585.79,585.79,0,0,0,168.3,386a14.05,14.05,0,0,1,13.41,5.6,53.18,53.18,0,0,0,61.22,18.47,14.52,14.52,0,0,1,13.67,2.22,561.9,561.9,0,0,0,71.18,48.15A10.1,10.1,0,0,1,326,478.89,241.6,241.6,0,0,1,67.71,408.81Z" transform="translate(-7.78 -7.8)"/><path d="M25.35,294.81a225.55,225.55,0,0,0,16.07,49.72,1.91,1.91,0,0,0,1.69,1.23,525,525,0,0,0,116.73-3.51,1.11,1.11,0,0,0,.91-.85l.39-1.3A1.12,1.12,0,0,0,161,339c-4.1-4.69-8.2-9.37-12.17-14.25A693.6,693.6,0,0,1,106.36,268a1.36,1.36,0,0,0-1-.52c-1.5.13-2.93.19-4.43.19a59.1,59.1,0,0,1-36.7-12.56,1.33,1.33,0,0,0-.71-.26,1,1,0,0,0-.72.33c-13,12.1-25.44,24.79-37,37.87A2.07,2.07,0,0,0,25.35,294.81ZM12.6,297.35a15.3,15.3,0,0,1,3.44-13c11.78-13.33,24.53-26.35,37.81-38.78a14.12,14.12,0,0,1,18.35-.78,45.84,45.84,0,0,0,32,9.7,14.14,14.14,0,0,1,13,6.24c13,19.26,26.94,38,41.58,55.7,4,4.69,7.93,9.37,12,13.93a14.26,14.26,0,0,1,2.86,13.66l-.26,1a14.3,14.3,0,0,1-11.71,10.08A560.31,560.31,0,0,1,85,360.53c-14.18,0-28.63-.58-43-1.82a14.94,14.94,0,0,1-12.36-8.78A239.3,239.3,0,0,1,12.6,297.35Z" transform="translate(-7.78 -7.8)"/><path d="M43.83,149.52a228.25,228.25,0,0,0-23,95.78c7-7.09,14.31-14.19,21.93-21.08a1.46,1.46,0,0,0,.32-.91v-.2a57.74,57.74,0,0,1-2-15.16,58.81,58.81,0,0,1,11.71-35.4,1.48,1.48,0,0,0,.13-1.17C49.68,164.09,46.63,156.74,43.83,149.52Zm-36,100A241.67,241.67,0,0,1,37.19,134a8.21,8.21,0,0,1,7.87-4.29,8.35,8.35,0,0,1,7.23,5.4c3.71,10.15,7.93,20.56,12.55,31a14.25,14.25,0,0,1-1.62,14.19A46.47,46.47,0,0,0,54.11,208a45.11,45.11,0,0,0,1.56,11.78,14.14,14.14,0,0,1-4.1,14.12c-10.28,9.37-20.17,19.06-29.34,28.69a8.21,8.21,0,0,1-6,2.6,9.45,9.45,0,0,1-3-.52,8.4,8.4,0,0,1-5.34-7.54C7.84,254.6,7.78,252.07,7.78,249.53Z" transform="translate(-7.78 -7.8)"/></svg>