<svg id="Capa_1" data-name="Capa 1" xmlns="http://www.w3.org/2000/svg" viewBox="0 0 464.77 386.07"><defs><style>.cls-1{fill:#ffd566;}</style></defs><path class="cls-1" d="M211.83,237.58a3.87,3.87,0,0,0-3.85,3.35c-6.37,45.49-22,94.41-41.45,94.41a3.91,3.91,0,1,1,0-7.82c15.13,0,30.53-61.94,33.79-85.5a3.78,3.78,0,0,0-.89-3.08,4,4,0,0,0-3-1.36H163.31a3.92,3.92,0,0,0-3.82,3.19A81.8,81.8,0,0,1,78.93,308a3.91,3.91,0,1,1,0-7.82,74.51,74.51,0,0,0,72.28-58.05,3.73,3.73,0,0,0-.7-3.19,3.92,3.92,0,0,0-2.87-1.55A52.3,52.3,0,0,1,148,133a3.92,3.92,0,0,0,3.53-2.72A63.3,63.3,0,0,1,236,90.41a3.81,3.81,0,0,0,4.35-1,71.29,71.29,0,0,1,124,40.91,4,4,0,0,0,3.19,3.46,52.32,52.32,0,0,1-6.88,103.66,3.91,3.91,0,0,0-3.62,4.74,74.54,74.54,0,0,0,72.28,58.05,3.91,3.91,0,1,1,0,7.82,81.84,81.84,0,0,1-80.56-67.27,3.88,3.88,0,0,0-3.81-3.19H311.84a4,4,0,0,0-3,1.36A3.81,3.81,0,0,0,308,242c3.31,23.56,18.66,85.5,33.79,85.5a3.91,3.91,0,1,1,0,7.82c-19.36,0-35-48.92-41.41-94.41a3.9,3.9,0,0,0-3.85-3.35H262a3.9,3.9,0,0,0-3.89,3.89V358.74a3.91,3.91,0,0,1-7.81,0V241.47a3.9,3.9,0,0,0-3.89-3.89Z" transform="translate(-17.15 -56.53)"/><path d="M474.15,374.9V336H444.52a3.94,3.94,0,0,1-3.19-1.63l-2.22-3.15a2.81,2.81,0,0,0-1.4-.74H424.65a2.81,2.81,0,0,0-1.4.74L421,334.35a3.94,3.94,0,0,1-3.19,1.63h-3V374.9ZM481.92,335v40.86a6.84,6.84,0,0,1-6.8,6.81H413.88a6.84,6.84,0,0,1-6.81-6.81V335a6.84,6.84,0,0,1,6.81-6.81h2l1.05-1.48a10.11,10.11,0,0,1,7.74-4h13.06a10.17,10.17,0,0,1,7.74,4l1.05,1.48h28.62A6.84,6.84,0,0,1,481.92,335Z" transform="translate(-17.15 -56.53)"/><path d="M343.07,360.43H330a2.49,2.49,0,0,0-1.36.71l-2.26,3.18A4,4,0,0,1,323.2,366h-3v38.88H379.5V366H349.84a3.81,3.81,0,0,1-3.15-1.68l-2.22-3.11A2.59,2.59,0,0,0,343.07,360.43Zm37.41,52.19H319.24a6.81,6.81,0,0,1-6.81-6.77V365a6.81,6.81,0,0,1,6.81-6.8h2l1-1.52a10.12,10.12,0,0,1,7.74-4h13.06a10,10,0,0,1,7.74,4l1.05,1.48h28.62a6.81,6.81,0,0,1,6.8,6.8v40.87A6.81,6.81,0,0,1,380.48,412.62Z" transform="translate(-17.15 -56.53)"/><path d="M228.29,391.11l-2.22,3.15a4,4,0,0,1-3.19,1.64h-3v38.92h59.3V395.9H249.52a3.89,3.89,0,0,1-3.15-1.64l-2.22-3.15h0a2.61,2.61,0,0,0-1.36-.74H229.69A2.73,2.73,0,0,0,228.29,391.11Zm-16.18,3.81a6.82,6.82,0,0,1,6.81-6.8h1.94l1.09-1.48a10.06,10.06,0,0,1,7.74-4h13.06a10.17,10.17,0,0,1,7.74,4l1,1.48h28.62a6.83,6.83,0,0,1,6.8,6.8v40.87a6.81,6.81,0,0,1-6.8,6.8H218.92a6.79,6.79,0,0,1-6.81-6.8Z" transform="translate(-17.15 -56.53)"/><path d="M118.56,358.18h2l1-1.48a10.08,10.08,0,0,1,7.78-4h13a10.06,10.06,0,0,1,7.77,4l1.05,1.48h28.62a6.78,6.78,0,0,1,6.77,6.8v40.87a6.78,6.78,0,0,1-6.77,6.77H118.56a6.77,6.77,0,0,1-6.76-6.77V365A6.77,6.77,0,0,1,118.56,358.18Zm4,7.78h-3v38.88h59.26V366H149.2a4,4,0,0,1-3.19-1.64l-2.21-3.15v0a2.39,2.39,0,0,0-1.4-.71h-13a2.37,2.37,0,0,0-1.4.74l-2.22,3.11A3.86,3.86,0,0,1,122.57,366Z" transform="translate(-17.15 -56.53)"/><path d="M210.56,243.9c-3.38,22.52-17.15,97.75-48.64,97.75a11.68,11.68,0,1,1,0-23.36c5.87-2.14,20.06-41.34,25.43-74.39H161.88a89.56,89.56,0,0,1-87.57,70.46,11.69,11.69,0,1,1,0-23.37,66.8,66.8,0,0,0,63.62-47.67,60.08,60.08,0,0,1,2.37-119.41,70.7,70.7,0,0,1,67-47.48,69.91,69.91,0,0,1,24.5,4.36,79,79,0,0,1,135.35,44.48,60.1,60.1,0,0,1-6,118.05A66.75,66.75,0,0,0,424.73,291a11.69,11.69,0,1,1,0,23.37,89.62,89.62,0,0,1-87.57-70.46H311.73c5.37,33,19.56,72.25,25.66,74.42h0a11.67,11.67,0,0,1-.31,23.33c-31.45,0-45.22-75.23-48.64-97.75H261.22V357.29a11.69,11.69,0,0,1-23.37,0V243.9Zm-48.64,90c19.4,0,35.07-48.92,41.44-94.41a3.87,3.87,0,0,1,3.85-3.34h34.53a3.9,3.9,0,0,1,3.89,3.88V357.29a3.91,3.91,0,0,0,7.82,0V240a3.9,3.9,0,0,1,3.88-3.88h34.53a3.88,3.88,0,0,1,3.85,3.34c6.38,45.49,22.05,94.41,41.41,94.41a3.91,3.91,0,1,0,0-7.82c-15.12,0-30.48-61.94-33.79-85.5a3.81,3.81,0,0,1,.94-3.07,3.89,3.89,0,0,1,3-1.36h33.13a3.87,3.87,0,0,1,3.81,3.19,81.85,81.85,0,0,0,80.57,67.26,3.91,3.91,0,1,0,0-7.81,74.56,74.56,0,0,1-72.29-58.06,3.87,3.87,0,0,1,.7-3.18,3.91,3.91,0,0,1,2.92-1.56,52.32,52.32,0,0,0,6.88-103.66,4,4,0,0,1-3.19-3.46,71.29,71.29,0,0,0-124-40.91,3.8,3.8,0,0,1-4.35,1,63.29,63.29,0,0,0-84.49,39.82,3.93,3.93,0,0,1-3.54,2.72A52.3,52.3,0,0,0,143,236a3.9,3.9,0,0,1,2.88,1.56,3.73,3.73,0,0,1,.7,3.18,74.54,74.54,0,0,1-72.29,58.06,3.91,3.91,0,1,0,0,7.81,81.82,81.82,0,0,0,80.57-67.26,3.91,3.91,0,0,1,3.81-3.19h33.17a3.92,3.92,0,0,1,2.95,1.36,3.79,3.79,0,0,1,.9,3.07c-3.27,23.56-18.67,85.5-33.79,85.5a3.91,3.91,0,1,0,0,7.82Z" transform="translate(-17.15 -56.53)"/><path d="M84.19,336H54.56a4,4,0,0,1-3.19-1.63l-2.21-3.15a2.73,2.73,0,0,0-1.4-.74h-13a2.29,2.29,0,0,0-1.4.74l-2.22,3.15A4,4,0,0,1,27.93,336h-3V374.9H84.19ZM56.58,328.2H85.16A6.82,6.82,0,0,1,92,335v40.86a6.82,6.82,0,0,1-6.81,6.81H23.92a6.82,6.82,0,0,1-6.77-6.81V335a6.81,6.81,0,0,1,6.77-6.81h2L27,326.72a10.2,10.2,0,0,1,7.78-4h13a10.18,10.18,0,0,1,7.77,4Z" transform="translate(-17.15 -56.53)"/></svg>