<svg id="Capa_1" data-name="Capa 1" xmlns="http://www.w3.org/2000/svg" viewBox="0 0 435.42 408.12"><defs><style>.cls-1{fill:#ffd566;}</style></defs><path class="cls-1" d="M271.12,446.92a4.69,4.69,0,0,0,4.7,4.7H336.1V457H188v-5.35h60.33a4.71,4.71,0,0,0,4.69-4.7V413a4.66,4.66,0,0,0-4.69-4.7H81.49a27.76,27.76,0,0,1-27.72-27.67V95.33A27.76,27.76,0,0,1,81.49,67.65H442.67a27.76,27.76,0,0,1,27.72,27.68V380.67a27.76,27.76,0,0,1-27.72,27.67H275.82a4.66,4.66,0,0,0-4.7,4.7Zm181-60.8V90a4.68,4.68,0,0,0-4.7-4.7H76.7A4.71,4.71,0,0,0,72,90v296.1a4.71,4.71,0,0,0,4.7,4.7H447.41A4.69,4.69,0,0,0,452.11,386.12Z" transform="translate(-37.03 -56.49)"/><rect class="cls-1" x="78.48" y="70.88" width="76.35" height="75.18"/><rect x="66.44" y="269.37" width="302.54" height="16.3"/><rect x="66.44" y="201.1" width="302.54" height="16.26"/><rect x="176.48" y="132.73" width="192.5" height="16.26"/><rect x="176.48" y="64.42" width="192.5" height="16.26"/><path d="M184.52,200.78V125.61H108.17v75.17Zm9.39-79.87v84.57a4.67,4.67,0,0,1-4.69,4.7H103.47a4.71,4.71,0,0,1-4.7-4.7V120.91a4.71,4.71,0,0,1,4.7-4.7h85.75A4.68,4.68,0,0,1,193.91,120.91Z" transform="translate(-37.03 -56.49)"/><path d="M435.37,379.66V93H74.05V379.66Zm9.4-291.41V384.36a4.69,4.69,0,0,1-4.7,4.7H69.36a4.71,4.71,0,0,1-4.7-4.7V88.25a4.71,4.71,0,0,1,4.7-4.69H440.07A4.68,4.68,0,0,1,444.77,88.25Z" transform="translate(-37.03 -56.49)"/><path d="M268.48,406.58H435.33a27.76,27.76,0,0,0,27.72-27.67V93.56a27.76,27.76,0,0,0-27.72-27.67H74.15A27.76,27.76,0,0,0,46.43,93.56V378.91a27.76,27.76,0,0,0,27.72,27.67H241a4.64,4.64,0,0,1,4.7,4.7v33.88a4.71,4.71,0,0,1-4.7,4.69H180.66v5.36h148.1v-5.36H268.48a4.68,4.68,0,0,1-4.7-4.69V411.28A4.66,4.66,0,0,1,268.48,406.58ZM435.33,416H273.18v24.48h60.28a4.71,4.71,0,0,1,4.7,4.7v14.75a4.71,4.71,0,0,1-4.7,4.7H176a4.71,4.71,0,0,1-4.7-4.7V445.16a4.71,4.71,0,0,1,4.7-4.7H236.3V416H74.15A37.13,37.13,0,0,1,37,378.91V93.56A37.13,37.13,0,0,1,74.15,56.49H435.33a37.13,37.13,0,0,1,37.11,37.07V378.91A37.12,37.12,0,0,1,435.33,416Z" transform="translate(-37.03 -56.49)"/></svg>