<svg id="Capa_1" data-name="Capa 1" xmlns="http://www.w3.org/2000/svg" viewBox="0 0 444.92 485.36"><defs><style>.cls-1{fill:#ffd566;}</style></defs><path class="cls-1" d="M347.17,45.76c24.75,59.6,64.3,71.91,97.87,74.38-4.25,154.17-65,263.85-185.65,335.06C138.86,384,78.06,274.31,73.81,120.14c33.57-2.47,73.18-14.78,97.93-74.38Zm47.16,113a13.68,13.68,0,0,0-13.65-13.71c-21.45,0-37.44-2.54-48.8-35.23A13.61,13.61,0,0,0,319,100.6H199.92A13.76,13.76,0,0,0,187,109.8c-11.36,32.75-27.35,35.29-48.8,35.29a13.73,13.73,0,0,0-13.65,13.71c0,54.46,10.47,100.79,31.73,139.57s53.32,70,96.41,94.19c.07.06.13.06.19.13a13.83,13.83,0,0,0,6.54,1.65,13.26,13.26,0,0,0,6.67-1.72c.06,0,.06,0,.12-.06C352.44,344.13,394.33,267.65,394.33,158.8Z" transform="translate(-27.08 -6.88)"/><path d="M370.77,155.4C347.66,155.4,324,152,310,111.61a.93.93,0,0,0-.89-.7H190a1,1,0,0,0-.95.63c-14,40.5-37.7,43.86-60.8,43.86a1,1,0,0,0-1,1c0,103.84,39.73,176.64,121.54,222.65.06.06.19.06.25.13l.39.06c.25,0,.38,0,.44-.06s.13-.07.25-.13c81.82-46,121.55-118.81,121.55-222.65A1,1,0,0,0,370.77,155.4Zm13.64,1c0,108.85-41.89,185.33-128.14,233.76-.07.06-.07.06-.13.06a13.22,13.22,0,0,1-6.66,1.72,13.8,13.8,0,0,1-6.54-1.65c-.07-.07-.13-.07-.19-.13C199.65,366,167.6,334.77,146.34,296S114.6,210.88,114.6,156.42a13.73,13.73,0,0,1,13.65-13.71c21.45,0,37.45-2.54,48.81-35.29A13.74,13.74,0,0,1,190,98.22H309.07A13.6,13.6,0,0,1,322,107.48c11.36,32.69,27.35,35.23,48.81,35.23A13.68,13.68,0,0,1,384.41,156.42Z" transform="translate(-27.08 -6.88)"/><path d="M448,111.93C445,275.49,381.17,391.19,252.65,465.64a6,6,0,0,1-3.17.89,6.43,6.43,0,0,1-3.18-.89C117.84,391.19,54,275.42,51.07,111.93a6.29,6.29,0,0,1,6-6.48c35.35-1.52,71.27-11.17,94.5-70.77a6.36,6.36,0,0,1,5.91-4h184a6.37,6.37,0,0,1,6,4c23.23,59.6,59.09,69.25,94.45,70.77A6.31,6.31,0,0,1,448,111.93Zm-12.82,5.84C401.55,115.29,362,103,337.25,43.38H161.82c-24.75,59.6-64.36,71.91-97.93,74.39C68.14,271.93,129,381.61,249.48,452.82,370.13,381.61,430.87,271.93,435.13,117.77Z" transform="translate(-27.08 -6.88)"/><path d="M453.78,82A18.2,18.2,0,0,1,472,100.12c0,181.59-69.75,309-213.39,389.71a.67.67,0,0,0-.31.12,14.25,14.25,0,0,1-2,.89,16.78,16.78,0,0,1-2.23.83,19,19,0,0,1-4.5.57,18,18,0,0,1-4.51-.57,13.94,13.94,0,0,1-2.22-.83,10.7,10.7,0,0,1-2.16-.95c-.06,0-.12-.06-.19-.06-71.85-40.31-125.16-92.35-160.58-157S27.08,191,27.08,100.12A18.14,18.14,0,0,1,45.23,82C82.1,82,111.87,77.34,132,19.2A18.37,18.37,0,0,1,149.26,6.88H349.82A18.23,18.23,0,0,1,367,19.2C387.14,77.34,416.91,82,453.78,82ZM252.9,478.46c138.94-78.19,206.41-202,206.41-378.34a5.52,5.52,0,0,0-5.53-5.46c-39,0-76-5.46-98.75-71.34a5.6,5.6,0,0,0-5.21-3.74H149.26A5.67,5.67,0,0,0,144,23.32C121.2,89.2,84.26,94.66,45.23,94.66a5.46,5.46,0,0,0-5.46,5.46c0,176.51,67.6,300.28,206.59,378.47a4.37,4.37,0,0,1,.45.19l.63.26a4.14,4.14,0,0,1,.77.31,4.43,4.43,0,0,0,2.6,0h.06l.51-.25.82-.32A4.78,4.78,0,0,1,252.9,478.46Z" transform="translate(-27.08 -6.88)"/></svg>