<?xml version="1.0" standalone="no"?>
<!DOCTYPE svg PUBLIC "-//W3C//DTD SVG 20010904//EN"
 "http://www.w3.org/TR/2001/REC-SVG-20010904/DTD/svg10.dtd">
<svg version="1.0" xmlns="http://www.w3.org/2000/svg"
 width="688.000000pt" height="688.000000pt" viewBox="0 0 688.000000 688.000000"
 preserveAspectRatio="xMidYMid meet">
<metadata>
Created by potrace 1.14, written by Peter Selinger 2001-2017
</metadata>
<g transform="translate(0.000000,688.000000) scale(0.100000,-0.100000)"
fill="#000000" stroke="none">
<path d="M3370 6870 c-14 -4 -39 -14 -55 -23 -50 -26 -692 -677 -710 -719 -19
-48 -19 -115 1 -164 22 -53 676 -708 729 -730 51 -21 124 -20 169 3 51 26 698
671 721 719 25 50 24 137 0 184 -23 46 -674 694 -717 714 -39 18 -103 26 -138
16z"/>
<path d="M1526 6095 c-44 -15 -38 -10 -433 -405 -300 -299 -323 -328 -323
-411 0 -22 7 -56 15 -77 17 -41 669 -702 719 -728 45 -25 134 -26 181 -3 46
22 671 640 712 703 34 52 39 135 12 191 -29 61 -671 701 -727 726 -51 22 -102
24 -156 4z"/>
<path d="M5210 6097 c-26 -8 -120 -95 -368 -341 -184 -182 -344 -349 -357
-371 -31 -53 -37 -106 -18 -168 14 -47 41 -77 351 -387 186 -186 353 -345 372
-356 45 -23 143 -25 186 -2 44 24 699 682 718 722 23 49 21 133 -5 181 -32 61
-668 691 -721 715 -47 21 -103 24 -158 7z"/>
<path d="M790 4240 c-57 -16 -100 -54 -423 -377 -295 -296 -339 -345 -351
-383 -14 -50 -13 -92 4 -144 14 -43 665 -698 724 -729 51 -27 128 -27 181 1
23 12 182 163 376 359 358 359 364 367 361 457 -1 22 -11 58 -22 80 -29 61
-684 710 -730 725 -48 15 -90 19 -120 11z"/>
<path d="M6012 4239 c-23 -5 -57 -18 -75 -30 -18 -13 -177 -168 -354 -345
-378 -377 -383 -384 -351 -512 10 -43 38 -74 357 -393 349 -348 361 -359 444
-373 15 -3 51 2 79 11 48 14 76 39 390 352 369 369 381 385 374 479 -3 27 -12
65 -21 83 -18 35 -638 660 -691 697 -41 28 -99 40 -152 31z"/>
<path d="M2492 3984 c-145 -37 -241 -174 -228 -324 22 -258 114 -492 270 -685
348 -430 959 -573 1455 -339 292 137 508 366 624 659 39 99 41 105 68 250 23
129 23 173 0 240 -71 201 -308 274 -471 146 -56 -44 -66 -56 -89 -106 -27 -57
-30 -68 -36 -138 -34 -346 -362 -603 -697 -545 -218 38 -392 177 -470 378 -29
73 -35 100 -43 181 -10 117 -73 212 -169 259 -72 35 -141 42 -214 24z"/>
<path d="M1530 2412 c-38 -12 -96 -66 -382 -350 -355 -353 -378 -382 -378
-464 1 -86 22 -112 374 -464 214 -214 347 -340 370 -349 45 -19 123 -19 168
-1 40 17 700 671 724 717 22 44 28 106 13 157 -12 42 -47 81 -358 393 -254
254 -355 349 -381 357 -58 19 -103 20 -150 4z"/>
<path d="M5245 2420 c-16 -4 -41 -12 -55 -18 -38 -15 -694 -675 -715 -718 -24
-52 -23 -130 3 -179 25 -49 673 -696 720 -720 47 -23 123 -21 174 4 50 24 696
667 722 718 20 40 21 123 1 171 -19 45 -661 694 -715 722 -43 22 -95 30 -135
20z"/>
<path d="M3335 1642 c-56 -26 -701 -672 -726 -727 -24 -53 -24 -126 0 -174 22
-43 670 -695 713 -717 15 -8 50 -17 77 -20 95 -10 113 3 474 364 188 187 337
344 349 367 28 54 29 137 1 190 -30 56 -667 688 -718 712 -53 26 -120 28 -170
5z"/>
</g>
</svg>
